<svg xmlns="http://www.w3.org/2000/svg" width="200" height="40" viewBox="0 0 200 40">
    <g fill="none" fill-rule="evenodd">
        <path fill="#E0001B" d="M62.73 7.206v6.526c-3.193-.526-7.615-1.474-9.967 1.368-.842 1.123-.877 2.913-.456 4.21.491 1.58 2.176 2.457 3.72 2.668l.07-6.176h6.634v12.176c-5.16.982-11.231.912-14.846-3.299-2.703-2.842-3.194-7.403-1.93-11.087 1.509-4.246 5.966-6.842 10.318-6.983 2.246-.035 4.387.14 6.458.597M64.872 27.872L71.611 27.872 71.611 7.03 64.872 7.03zM147.28 7.872c2.878-1.93 7.616-1.649 10.353.386 2.387 1.93 3.089 4.702 3.299 7.58v12.07h-6.738l-.106-13.123c-.14-.562-.28-1.228-.912-1.544-.492-.21-1.194-.14-1.65.07-.666.456-.702 1.193-.807 1.93l-.07 12.666h-6.739l-.105-13.193c-.105-.596-.35-1.263-.948-1.508-.526-.14-1.263-.21-1.684.175-.632.561-.667 1.404-.702 2.21l-.035 12.281h-6.669V14.644c.246-3.193 2.211-6.702 5.51-7.649 2.527-.702 5.827-.631 8.003.877M163.213 27.872L169.952 27.872 169.952 7.03 163.213 7.03zM188.73 10.89c.701 1.368 1.087 2.912 1.192 4.561v12.456h-6.738l-.07-12.807c-.14-.596-.316-1.228-.842-1.649-.527-.35-1.334-.386-1.966-.21-1.088.456-1.264 1.649-1.369 2.666v12.036h-6.739V14.609c.386-2.772 1.72-5.614 4.423-7.052 2.772-1.439 6.984-1.369 9.546.456 1.123.737 1.965 1.824 2.562 2.877M192.204 27.872L198.942 27.872 198.942 7.03 192.204 7.03zM124.888 14.89c.807 1.052 1.017 2.526.666 3.824-.35 1.369-1.684 2.667-3.053 2.983-1.474.316-3.053 0-4.142-1.053-1.123-1.052-1.543-2.491-1.263-4.07.246-1.333 1.299-2.596 2.562-3.123 1.86-.737 4.001-.14 5.23 1.439m5.72-3.544c2.106 2.807 2.563 7.333 1.018 10.561-1.58 3.614-5.334 6.176-9.16 6.492-4.071.28-7.651-1.193-10.178-4.457-2.211-2.771-2.738-7.192-1.334-10.49 1.474-3.895 5.58-6.632 9.652-6.878 4.07-.175 7.616 1.439 10.003 4.772M90.352 10.785c.667 1.333 1.088 2.772 1.229 4.315.105 4.211.035 8.527.07 12.808h-6.739v-4.562h-4.211v4.562h-6.74l.106-13.193c.246-3.229 2.246-6.737 5.546-7.685 3.966-1.087 8.739-.28 10.74 3.755m-6.143 2.807c.808 1.017.632 2.456.632 3.824h-4.177c.14-1.508-.35-3.508 1.3-4.175.736-.176 1.649-.176 2.245.35M99.863 17.486c0 .913.211 1.51.702 2.351 2.142 2.491 5.09 1.965 8.88 1.58v6.876c-2.317.316-3.089.316-5.44.351-4.352-.14-8.95-2.772-10.494-7.087-.456-1.264-.667-2.632-.667-4 0-1.369.21-2.737.667-4 1.544-4.316 5.966-6.843 10.353-6.983 2.317 0 3.37.105 5.37.386v6.772c-2.913-.597-6.176-1.193-8.669 1.509-.49.912-.702 1.333-.702 2.245M39.672 19.136C39.286 8.188 30.091-.374 19.14.013 8.19.399-.373 9.592.013 20.539c.386 10.947 9.581 19.509 20.531 19.123 10.916-.386 19.514-9.58 19.128-20.526M164.161 32.82h-1.58l-.912 2.35c-.035.106-.105.106-.14.106-.07 0-.105-.035-.14-.105l-.913-2.351h-1.58V38.434h1.334c0-.562 0-.913-.035-1.439v-.456c0-.35-.035-.737-.035-.982 0-.036 0-.036.035-.036h.07c.036 0 .036.036.036.036l.701 1.824h.948l.702-1.824c0-.036.035-.036.035-.036h.07l.036.036c0 .21 0 .561-.036.877 0 .175-.035.386-.035.561V38.433h1.334V34.68c.105-.561.105-1.158.105-1.86M147.982 37.276c-.036 0-.07-.036-.07-.07v-.913c0-.14.105-.175.21-.175h2.105v-1.263h-2.105c-.14 0-.21-.07-.21-.21v-.597c0-.035.034-.07.07-.07h2.386V32.82c-.245 0-1.228-.035-2.07-.035-.808 0-1.51 0-1.72.035V38.434c.21 0 .912.035 1.72.035.807 0 1.825-.035 2.07-.035v-1.158h-2.386zM153.351 36.434L155.527 36.434 155.527 35.521 153.351 35.521zM170.479 37.276c-.07.07-.316.175-.667.175-.35 0-.597-.105-.667-.175-.246-.28-.386-.807-.386-1.579 0-.772.14-1.298.386-1.579.105-.105.316-.175.667-.175.351 0 .596.105.667.175.245.246.386.772.386 1.579 0 .772-.14 1.298-.386 1.579m1.017-4.07c-.35-.351-.947-.527-1.72-.527-.771 0-1.333.176-1.684.526-.526.492-.772 1.299-.772 2.492 0 1.158.246 2 .772 2.491.351.351.948.491 1.72.491s1.333-.175 1.684-.49c.527-.492.773-1.334.773-2.492 0-1.193-.246-2-.773-2.492M189.887 37.276c-.07.07-.315.175-.666.175-.351 0-.597-.105-.667-.175-.246-.28-.386-.807-.386-1.579 0-.772.14-1.298.386-1.579.105-.105.316-.175.667-.175.35 0 .596.105.666.175.246.246.387.772.387 1.579 0 .772-.141 1.298-.387 1.579m1.018-4.07c-.351-.351-.912-.527-1.72-.527-.772 0-1.333.176-1.684.526-.527.492-.773 1.299-.773 2.492 0 1.158.246 2 .773 2.491.35.351.947.491 1.72.491.772 0 1.333-.175 1.684-.49.526-.492.773-1.334.773-2.492-.036-1.193-.281-2-.773-2.492M174.83 32.82v1.193c.211 0 .843 0 1.405-.035 0 0 .035 0 .035.035l.035.035v4.386h1.334v-4.386c0-.035.035-.07.07-.07h1.404V32.82c-.281 0-1.615-.035-2.457-.035-.808.035-1.615.035-1.825.035M183.465 35.907L183.465 34.574 183.465 32.82 182.131 32.82 182.131 34.609 182.131 35.486 182.131 36.749 182.131 38.399 183.465 38.399 183.465 36.714zM198.943 36.96V32.82h-1.335v.877c0 .42.036.877.036 1.263v.737c0 .07-.036.14-.105.14-.07 0-.106-.035-.14-.07l-1.44-2.912h-1.65V38.434h1.334v-.878c0-.42-.035-.877-.035-1.262v-.738c0-.07.035-.105.106-.14.07 0 .105 0 .14.07l1.544 2.913h1.545V36.96zM120.711 32.82v1.193c.21 0 .842 0 1.404-.035 0 0 .035 0 .035.035l.035.035v4.386h1.334v-4.386c0-.035.035-.07.07-.07h1.404V32.82c-.28 0-1.614-.035-2.457-.035-.842.035-1.614.035-1.825.035M109.726 34.469c0 .21-.036.386-.036.526-.034.491-.105 1.439-.175 1.825 0 .035-.035.035-.035.035h-.07l-.035-.035c-.07-.246-.211-.912-.28-1.123l-.282-1.088h-1.439l-.28 1.123c-.07.246-.211.877-.281 1.123 0 0 0 .035-.035.035H106.707c-.035 0-.035-.035-.035-.035-.07-.386-.14-1.298-.175-1.825 0-.14-.035-.315-.035-.526-.035-.526-.07-1.158-.07-1.65h-1.404c0 2.246.28 4.106.912 5.65h1.474l.597-1.72c.035-.07.035-.105.14-.105.106 0 .14.07.14.106l.633 1.719h1.439c.631-1.544.912-3.369.912-5.65h-1.404c-.035.422-.07 1.089-.105 1.615M116.675 36.328l-.035.036h-1.088c-.035 0-.035 0-.035-.036v-.035c.07-.35.386-1.403.456-1.614.035-.105.07-.14.14-.14s.106.035.14.14c.071.246.387 1.264.457 1.614 0 0 0 .035-.035.035m1.158-.771c-.561-1.86-.807-2.562-.877-2.737h-1.72c-.07.175-.316.842-.877 2.737-.527 1.789-.773 2.631-.843 2.877h1.44c.034-.176.14-.491.21-.842 0-.035.035-.035.07-.035h1.72c.035 0 .035.035.07.035l.07.28c.07.21.105.421.14.562h1.44c-.07-.246-.316-1.088-.843-2.877M129.205 37.276c-.036 0-.07-.036-.07-.07v-.913c0-.14.105-.175.21-.175h2.106v-1.263h-2.106c-.14 0-.21-.07-.21-.21v-.597c0-.035.034-.07.07-.07h2.386V32.82c-.245 0-1.228-.035-2.07-.035-.808 0-1.51 0-1.72.035V38.434c.21 0 .912.035 1.72.035.807 0 1.825-.035 2.07-.035v-1.158h-2.386zM136.68 35.31h-.736c-.036 0-.07-.034-.07-.069V34.048l.034-.035h.667c.28 0 .491.35.491.666.07.28-.07.632-.386.632zm.843 1.16c-.035-.036-.07-.107-.035-.176 0-.07.07-.106.105-.141.596-.316.877-.807.877-1.544 0-.912-.491-1.79-1.65-1.79h-2.246v5.615h1.334V36.504c0-.035.035-.07.07-.07.106 0 .106.035.176.14l1.018 1.86h1.544l-1.193-1.965z"/>
        <path fill="#FFF" d="M31.81 12.995c1.334 2.912 2.247 6.035 2.563 9.404.035.386-.14.666-.492.772-.526.14-.877-.21-1.018-.562-.315-4.035-.807-8-2.562-11.438 0-.176.21-.21.316-.14l1.194 1.964zm3.335 2.386c.42 1.333.877 2.667.702 4.176-.14.386-.632.42-.948.245-.702-.42-.28-.982-.561-2.561-.351-2.14-.738-4.176-2.212-5.72.246-.315.597.036.878.176 1.018 1.053 1.58 2.35 2.14 3.684z"/>
        <path fill="#FFF" d="M24.335 10.013c-.457.035-.492-.316-.562-.667-.035-.35.07-.632.21-.877.457-.14.668.245.703.561.07.386 0 .877-.351.983m.21 3.824c-.877.913-2.632 1.65-4.106 1.334-.07-1.088 1.158-.843 2-1.334.667-.386 1.229-.912 1.44-1.649.701.21.842 1.053.666 1.65m-5.826-1.72l.21 1.86c-.14.315-.806.35-.912.07-.35-1.158-1.053-2.983-.737-3.228 1.123-.948 2.808-2.14 4.563-2.14 0 0 .175 0 .175.21.035.386-.947.456-1.474.702-.982.456-1.79 1.333-1.825 2.526m11.828-3.614s0-.07-.105-.105c-.597-.14-1.088-.176-2.036-1.58-.28-.42-.456-1.122-.491-1.93-.035-.806-.281-1.929-.948-2.385-.667-.456-2.808.491-4.352 3.158-.562.912-1.193 1.333-1.544 1.509 0 0-.948.42-2.808 1.087-1.369.492-2.527 1.018-3.018 1.79-.176.28-.106.596-.106.947-.035 1.333.632 3.72.632 3.72s1.404 3.964-.28 7.017c-.948 1.509-1.65 2.807-.703 4.737.422.842.702 1.193 1.194 2.456.596 1.579 1.895 2.912 1.684 3.263-.105.07-.526-.175-.877-.245-.351-.036-.878-.176-2.387.456-1.684.701-2.14.386-2.421.175-.281-.175-.527-.667-1.194-.386-.21.105-.35.105-1.158 1.123-.21.316-1.053.421-1.053.421s-.702.105-.807.35c-.105.246.14.246.35.211.212-.07.527-.07.913-.07 0 0 .737 0 1.86-.28.632-.176 1.3-.14 2.492.105 1.159.245 5.3.35 6.178.07.175-.035.842-.175.772-1.158-.035-.28 0-1.965-.702-4.07-.457-1.439-.667-1.965-.737-2.176 0-.035 0-.105.105-.105h.07c.772-.035 3.264-.28 4.387-1.263.246-.175.597-.35.667-.316.07.07.316.21.176.597-.14.386-.772 2.035-.667 3.087.07 1.088.175 1.79.316 2.457.035.105.035.21.07.315.035.246.105.597 0 .772v.035c-.176.351-.491.843-.386 1.404.105.561.877.456 1.053.421.175 0 1.158-.07 1.79.175.631.246 1.895.386 2.14.035.141-.175-.035-.42-.315-.385-.562.035-1.194-.457-1.44-.562-.245-.105-.666-.42-1.263-.737-.245-.21-.316-.807.07-3.263.07-.456.773-3.228.773-3.228s.175-.807.35-1.333c.176-.597.316-2.316-.877-2.527-1.193-.21-1.755-.42-5.405.457-.526.07-.561-.667-.386-1.158.176-.527.491-1.193.842-1.51.843-.07 1.334-.455 1.404-1.052.07-.737-.737-1.403.597-2.14 0 0 .035-.035.105-.07.421-.21 1.615-1.088 2.352-1.614.07-.07.526-.456.596-.527.176-.175.14-.456.07-1.403-.14-1.123-.35-2.912-.385-4 0-.07.035-.14.035-.21 0-.07.035-.141.035-.211.14-.456.596-1.018 1.544-.597.877.421 1.474 1.439 1.65 1.72 0 0 .035.07.14.07.456-.07 1.369-.316 1.439-1.544"/>
    </g>
</svg>
