<svg xmlns="http://www.w3.org/2000/svg" xmlns:xlink="http://www.w3.org/1999/xlink" viewBox="0 0 450 225" preserveAspectRatio="xMidYMid meet" version="1.0"><defs><clipPath id="fba75b0cdf"><path d="M 186.46875 117 L 200 117 L 200 161 L 186.46875 161 Z M 186.46875 117 " clip-rule="nonzero"/></clipPath></defs><path fill="#008892" d="M 66.734375 146.671875 C 71.214844 148.234375 74.042969 149.402344 75.9375 150.285156 C 85.875 154.90625 96.933594 150.984375 102.039062 155.632812 C 104.53125 157.898438 107.257812 160.058594 105.667969 160.851562 C 102.714844 162.328125 96.417969 163.140625 93.371094 163.253906 C 88.230469 163.449219 77.648438 162.707031 72.78125 161.761719 C 72.78125 161.761719 80.523438 165.800781 90.953125 165.585938 C 92.996094 165.542969 110.910156 164.761719 109.375 159.585938 C 109.128906 158.757812 107.921875 157.398438 107.921875 157.398438 C 107.921875 157.398438 116.191406 152.359375 124.46875 150.316406 C 132.75 148.273438 138.105469 150.410156 138.785156 151.320312 C 139.148438 151.804688 134.75 154.65625 129.953125 157.707031 C 116.640625 166.179688 109.753906 171.269531 93.082031 174.925781 C 84.804688 176.742188 73.351562 174.019531 63.824219 171.976562 C 54.296875 169.933594 45.90625 165.847656 33.429688 168.796875 C 20.957031 171.75 15.058594 176.515625 15.058594 176.515625 C 22.46875 157.308594 37.125 140.992188 59.652344 144.824219 C 61.929688 145.210938 64.292969 145.820312 66.734375 146.671875 Z M 66.734375 146.671875 " fill-opacity="1" fill-rule="evenodd"/><path fill="#008892" d="M 88.25 26.675781 C 134.636719 26.675781 172.242188 64.304688 172.242188 110.722656 C 172.242188 138.867188 158.414062 163.777344 137.191406 179.03125 C 155.414062 164.164062 167.054688 141.523438 167.054688 116.164062 C 167.054688 71.382812 130.777344 35.082031 86.027344 35.082031 C 41.277344 35.082031 5 71.382812 5 116.164062 C 5 119.214844 5.175781 122.222656 5.503906 125.1875 C 4.6875 120.488281 4.257812 115.65625 4.257812 110.722656 C 4.257812 64.304688 41.863281 26.675781 88.25 26.675781 Z M 88.25 26.675781 " fill-opacity="1" fill-rule="evenodd"/><path fill="#0070ac" d="M 48.902344 141.710938 L 48.902344 103.160156 L 28.671875 102.824219 L 89.882812 48.140625 L 122.28125 78.15625 L 122.28125 64.125 L 132.820312 64.125 L 132.820312 87.925781 L 148.410156 102.367188 L 132.820312 103.273438 L 132.820312 146.707031 C 130.570312 146.542969 127.75 146.695312 124.472656 147.503906 C 123.488281 147.746094 122.503906 148.03125 121.535156 148.34375 L 121.753906 98.753906 L 128.078125 98.753906 L 90.128906 62.355469 L 53.53125 95.585938 L 60.308594 95.585938 L 60.308594 141.839844 L 58.84375 141.878906 C 55.339844 141.355469 52.023438 141.320312 48.902344 141.710938 Z M 48.902344 141.710938 " fill-opacity="1" fill-rule="evenodd"/><path fill="#0070ac" d="M 76.058594 115.027344 L 88.0625 115.027344 L 88.0625 127.039062 L 76.058594 127.039062 Z M 92.007812 99.226562 L 104.011719 99.226562 L 104.011719 111.234375 L 92.007812 111.234375 Z M 92.007812 115.027344 L 104.011719 115.027344 L 104.011719 127.039062 L 92.007812 127.039062 Z M 76.058594 99.226562 L 88.0625 99.226562 L 88.0625 111.234375 L 76.058594 111.234375 Z M 76.058594 99.226562 " fill-opacity="1" fill-rule="evenodd"/><path fill="#0070ac" d="M 124.558594 27.734375 C 171.515625 45.117188 195.503906 97.304688 178.128906 144.300781 C 160.757812 191.292969 108.605469 215.296875 61.644531 197.910156 C 56.378906 195.960938 51.402344 193.570312 46.738281 190.800781 C 49.5625 192.195312 52.480469 193.464844 55.5 194.582031 C 101.949219 211.777344 153.53125 188.035156 170.714844 141.554688 C 187.898438 95.074219 164.175781 43.453125 117.726562 26.257812 C 114.707031 25.140625 111.664062 24.199219 108.613281 23.425781 C 113.953125 24.359375 119.289062 25.785156 124.558594 27.734375 Z M 124.558594 27.734375 " fill-opacity="1" fill-rule="evenodd"/><path fill="#008892" d="M 215.34375 105.082031 L 208.128906 88.625 L 202.40625 88.625 L 202.40625 105.082031 L 186.570312 105.082031 L 186.570312 52.808594 L 214.480469 52.808594 C 226.710938 52.808594 233.296875 60.960938 233.296875 70.757812 C 233.296875 79.769531 228.042969 84.550781 223.890625 86.585938 L 233.375 105.082031 Z M 217.226562 70.679688 C 217.226562 67.855469 214.714844 66.601562 212.050781 66.601562 L 202.40625 66.601562 L 202.40625 74.832031 L 212.050781 74.832031 C 214.714844 74.832031 217.226562 73.578125 217.226562 70.679688 Z M 217.226562 70.679688 " fill-opacity="1" fill-rule="nonzero"/><path fill="#008892" d="M 234.472656 86.117188 C 234.472656 75.535156 242.3125 66.289062 255.71875 66.289062 C 269.203125 66.289062 277.042969 75.535156 277.042969 86.117188 C 277.042969 96.695312 269.203125 106.023438 255.71875 106.023438 C 242.3125 106.023438 234.472656 96.695312 234.472656 86.117188 Z M 262.539062 86.117188 C 262.539062 81.960938 260.109375 78.75 255.71875 78.75 C 251.40625 78.75 248.976562 81.960938 248.976562 86.117188 C 248.976562 90.347656 251.40625 93.5625 255.71875 93.5625 C 260.109375 93.5625 262.539062 90.347656 262.539062 86.117188 Z M 262.539062 86.117188 " fill-opacity="1" fill-rule="nonzero"/><path fill="#008892" d="M 279.082031 100.222656 L 284.726562 90.738281 C 287.707031 93.089844 294.136719 95.519531 298.367188 95.519531 C 301.269531 95.519531 302.132812 94.816406 302.132812 93.875 C 302.132812 90.269531 280.652344 94.894531 280.652344 79.0625 C 280.652344 72.246094 286.609375 66.289062 297.585938 66.289062 C 303.933594 66.289062 309.582031 68.25 313.96875 71.148438 L 308.796875 80.316406 C 306.445312 78.359375 302.054688 76.398438 297.664062 76.398438 C 295.625 76.398438 294.136719 77.027344 294.136719 78.042969 C 294.136719 81.179688 315.617188 77.261719 315.617188 93.011719 C 315.617188 100.535156 308.875 106.023438 297.664062 106.023438 C 290.6875 106.023438 283.160156 103.59375 279.082031 100.222656 Z M 279.082031 100.222656 " fill-opacity="1" fill-rule="nonzero"/><path fill="#008892" d="M 342.585938 105.082031 L 342.585938 101.476562 C 340.46875 104.140625 335.84375 106.023438 331.140625 106.023438 C 325.496094 106.023438 318.125 102.183594 318.125 93.5625 C 318.125 84.15625 325.496094 81.492188 331.140625 81.492188 C 336.078125 81.492188 340.546875 83.058594 342.585938 85.644531 L 342.585938 81.726562 C 342.585938 79.0625 340.15625 77.027344 335.53125 77.027344 C 332.003906 77.027344 328.003906 78.4375 325.023438 80.710938 L 320.242188 72.011719 C 325.339844 67.933594 332.394531 66.289062 338.117188 66.289062 C 347.523438 66.289062 356.699219 69.582031 356.699219 82.199219 L 356.699219 105.082031 Z M 342.585938 94.816406 L 342.585938 92.699219 C 341.644531 91.367188 339.214844 90.660156 337.019531 90.660156 C 334.667969 90.660156 332.082031 91.445312 332.082031 93.796875 C 332.082031 96.148438 334.667969 96.851562 337.019531 96.851562 C 339.214844 96.851562 341.644531 96.148438 342.585938 94.816406 Z M 342.585938 94.816406 " fill-opacity="1" fill-rule="nonzero"/><path fill="#008892" d="M 367.4375 94.109375 L 367.4375 79.453125 L 361.167969 79.453125 L 361.167969 67.230469 L 367.4375 67.230469 L 367.4375 56.886719 L 381.550781 56.886719 L 381.550781 67.230469 L 389.234375 67.230469 L 389.234375 79.453125 L 381.550781 79.453125 L 381.550781 90.035156 C 381.550781 91.992188 382.804688 93.5625 384.6875 93.5625 C 385.941406 93.5625 387.195312 93.167969 387.507812 92.855469 L 390.015625 103.515625 C 388.527344 104.847656 385.234375 106.023438 380.453125 106.023438 C 372.0625 106.023438 367.4375 102.023438 367.4375 94.109375 Z M 367.4375 94.109375 " fill-opacity="1" fill-rule="nonzero"/><path fill="#008892" d="M 391.898438 86.117188 C 391.898438 75.535156 399.738281 66.289062 413.144531 66.289062 C 426.628906 66.289062 434.46875 75.535156 434.46875 86.117188 C 434.46875 96.695312 426.628906 106.023438 413.144531 106.023438 C 399.738281 106.023438 391.898438 96.695312 391.898438 86.117188 Z M 419.964844 86.117188 C 419.964844 81.960938 417.535156 78.75 413.144531 78.75 C 408.832031 78.75 406.402344 81.960938 406.402344 86.117188 C 406.402344 90.347656 408.832031 93.5625 413.144531 93.5625 C 417.535156 93.5625 419.964844 90.347656 419.964844 86.117188 Z M 419.964844 86.117188 " fill-opacity="1" fill-rule="nonzero"/><g clip-path="url(#fba75b0cdf)"><path fill="#0070ac" d="M 186.636719 117.074219 L 199.730469 117.074219 L 199.730469 160.402344 L 186.636719 160.402344 Z M 186.636719 117.074219 " fill-opacity="1" fill-rule="nonzero"/></g><path fill="#0070ac" d="M 246.464844 160.402344 L 246.464844 142.082031 C 246.464844 140.199219 245.492188 138.574219 242.902344 138.574219 C 240.308594 138.574219 238.882812 140.132812 238.105469 141.042969 L 238.105469 160.402344 L 226.4375 160.402344 L 226.4375 142.082031 C 226.4375 140.199219 225.53125 138.574219 222.871094 138.574219 C 220.34375 138.574219 218.917969 140.132812 218.140625 141.042969 L 218.140625 160.402344 L 206.472656 160.402344 L 206.472656 129.027344 L 218.140625 129.027344 L 218.140625 132.597656 C 219.5 130.84375 223.457031 128.246094 228.511719 128.246094 C 232.917969 128.246094 236.09375 129.871094 237.519531 133.769531 C 239.335938 131.039062 243.417969 128.246094 248.476562 128.246094 C 254.246094 128.246094 258.132812 131.171875 258.132812 137.664062 L 258.132812 160.402344 Z M 246.464844 160.402344 " fill-opacity="1" fill-rule="nonzero"/><path fill="#0070ac" d="M 276.285156 157.089844 L 276.285156 172.355469 L 264.617188 172.355469 L 264.617188 129.027344 L 276.285156 129.027344 L 276.285156 132.339844 C 278.8125 129.351562 281.859375 128.246094 285.097656 128.246094 C 292.875 128.246094 298.839844 133.964844 298.839844 144.679688 C 298.839844 155.464844 292.875 161.179688 285.097656 161.179688 C 281.859375 161.179688 278.875 160.078125 276.285156 157.089844 Z M 286.914062 144.679688 C 286.914062 140.785156 284.191406 138.574219 281.078125 138.574219 C 279.589844 138.574219 277.386719 139.355469 276.285156 140.71875 L 276.285156 148.710938 C 277.320312 150.007812 279.589844 150.851562 281.078125 150.851562 C 284.191406 150.851562 286.914062 148.644531 286.914062 144.679688 Z M 286.914062 144.679688 " fill-opacity="1" fill-rule="nonzero"/><path fill="#0070ac" d="M 302.46875 120.191406 C 302.46875 116.554688 305.386719 113.632812 309.015625 113.632812 C 312.648438 113.632812 315.5625 116.554688 315.5625 120.191406 C 315.5625 123.828125 312.648438 126.753906 309.015625 126.753906 C 305.386719 126.753906 302.46875 123.828125 302.46875 120.191406 Z M 303.183594 160.402344 L 303.183594 129.027344 L 314.851562 129.027344 L 314.851562 160.402344 Z M 303.183594 160.402344 " fill-opacity="1" fill-rule="nonzero"/><path fill="#0070ac" d="M 339.417969 160.402344 L 339.417969 157.414062 C 337.667969 159.621094 333.84375 161.179688 329.953125 161.179688 C 325.285156 161.179688 319.195312 158 319.195312 150.851562 C 319.195312 143.058594 325.285156 140.847656 329.953125 140.847656 C 334.039062 140.847656 337.730469 142.148438 339.417969 144.292969 L 339.417969 141.042969 C 339.417969 138.835938 337.40625 137.144531 333.582031 137.144531 C 330.667969 137.144531 327.359375 138.316406 324.898438 140.199219 L 320.945312 132.988281 C 325.15625 129.609375 330.992188 128.246094 335.722656 128.246094 C 343.5 128.246094 351.085938 130.976562 351.085938 141.433594 L 351.085938 160.402344 Z M 339.417969 151.890625 L 339.417969 150.136719 C 338.640625 149.035156 336.628906 148.449219 334.816406 148.449219 C 332.871094 148.449219 330.730469 149.097656 330.730469 151.046875 C 330.730469 152.996094 332.871094 153.582031 334.816406 153.582031 C 336.628906 153.582031 338.640625 152.996094 339.417969 151.890625 Z M 339.417969 151.890625 " fill-opacity="1" fill-rule="nonzero"/><path fill="#0070ac" d="M 378.761719 160.402344 L 378.761719 143.058594 C 378.761719 139.808594 377.011719 138.574219 374.226562 138.574219 C 371.566406 138.574219 370.207031 139.941406 369.234375 141.042969 L 369.234375 160.402344 L 357.566406 160.402344 L 357.566406 129.027344 L 369.234375 129.027344 L 369.234375 132.597656 C 371.050781 130.519531 374.484375 128.246094 379.996094 128.246094 C 387.253906 128.246094 390.429688 132.664062 390.429688 138.121094 L 390.429688 160.402344 Z M 378.761719 160.402344 " fill-opacity="1" fill-rule="nonzero"/><path fill="#0070ac" d="M 399.3125 151.308594 L 399.3125 139.160156 L 394.125 139.160156 L 394.125 129.027344 L 399.3125 129.027344 L 399.3125 120.453125 L 410.980469 120.453125 L 410.980469 129.027344 L 417.332031 129.027344 L 417.332031 139.160156 L 410.980469 139.160156 L 410.980469 147.929688 C 410.980469 149.554688 412.015625 150.851562 413.570312 150.851562 C 414.609375 150.851562 415.644531 150.527344 415.90625 150.269531 L 417.980469 159.101562 C 416.746094 160.207031 414.023438 161.179688 410.070312 161.179688 C 403.136719 161.179688 399.3125 157.867188 399.3125 151.308594 Z M 399.3125 151.308594 " fill-opacity="1" fill-rule="nonzero"/><path fill="#0070ac" d="M 420.960938 120.191406 C 420.960938 116.554688 423.878906 113.632812 427.507812 113.632812 C 431.136719 113.632812 434.054688 116.554688 434.054688 120.191406 C 434.054688 123.828125 431.136719 126.753906 427.507812 126.753906 C 423.878906 126.753906 420.960938 123.828125 420.960938 120.191406 Z M 421.671875 160.402344 L 421.671875 129.027344 L 433.339844 129.027344 L 433.339844 160.402344 Z M 421.671875 160.402344 " fill-opacity="1" fill-rule="nonzero"/></svg>