<svg xmlns="http://www.w3.org/2000/svg" width="205" height="168" viewBox="0 0 205 168" fill="none"><path fill-rule="evenodd" clip-rule="evenodd" d="M202.818 92.9C202.818 89.66 200.398 87.52 197.598 87.52C194.798 87.52 192.348 89.66 192.348 92.9C192.348 95.96 194.528 98.28 197.598 98.28C200.388 98.28 202.818 96.14 202.818 92.9ZM196.548 93.43H197.458L198.988 95.97H200.088L198.438 93.35C199.318 93.25 199.978 92.81 199.978 91.73C199.978 90.52 199.248 90.02 197.818 90.02H195.578V95.98H196.548V93.44V93.43ZM196.548 92.59V90.85H197.718C198.308 90.85 198.998 90.94 198.998 91.66C198.998 92.52 198.358 92.59 197.628 92.59H196.548ZM201.678 92.89C201.678 95.52 199.878 97.34 197.598 97.34C195.068 97.34 193.498 95.34 193.498 92.89C193.498 90.27 195.288 88.44 197.598 88.44C199.908 88.44 201.678 90.27 201.678 92.89Z" fill="white"></path><path d="M26.4381 126.2C24.3081 126.2 22.6581 125.94 21.4081 125.4C20.1581 124.86 19.1981 124.2 18.5281 123.44C17.8481 122.66 17.4181 121.84 17.2681 121C17.1181 120.25 17.0481 119.68 17.0481 119.25V94.0301C17.0481 93.6001 17.1181 93.0301 17.2681 92.2801C17.4281 91.4501 17.8581 90.6301 18.5281 89.8501C19.1881 89.0901 20.1581 88.4301 21.4081 87.8901C22.6581 87.3501 24.3081 87.0901 26.4381 87.0901C28.5681 87.0901 30.2181 87.3501 31.4681 87.8901C32.7181 88.4301 33.6781 89.0901 34.3281 89.8601C34.9881 90.6401 35.3981 91.4601 35.5681 92.2901C35.7081 93.0401 35.7781 93.6101 35.7781 94.0401V96.1901H29.8681V94.8001C29.8681 94.5801 29.8281 94.3201 29.7481 94.0501C29.6881 93.8401 29.5581 93.6401 29.3481 93.4401C29.1181 93.2101 28.7581 93.0001 28.2981 92.8301C27.8281 92.6501 27.1481 92.5601 26.2881 92.5601C25.4981 92.5601 24.8681 92.6501 24.4081 92.8301C23.9781 93.0001 23.6581 93.2101 23.4381 93.4501C23.2281 93.6801 23.0981 93.9101 23.0481 94.1201C22.9781 94.4101 22.9481 94.6701 22.9481 94.9101V118.47C22.9481 118.71 22.9781 118.98 23.0481 119.26C23.0981 119.47 23.2181 119.68 23.4181 119.89C23.6281 120.12 23.9681 120.32 24.3981 120.5C24.8481 120.68 25.4781 120.77 26.2781 120.77C27.1381 120.77 27.8181 120.68 28.2881 120.49C28.7481 120.31 29.1081 120.11 29.3381 119.88C29.5481 119.68 29.6781 119.48 29.7381 119.27C29.8181 118.99 29.8581 118.75 29.8581 118.56V117.17H35.7681V119.27C35.7681 119.73 35.6981 120.31 35.5581 121.05C35.3981 121.86 34.9781 122.67 34.3181 123.45C33.6681 124.22 32.7081 124.88 31.4581 125.42C30.2081 125.96 28.5581 126.22 26.4281 126.22" fill="white"></path><path d="M55.1281 125.85H45.1381C44.0481 125.85 43.0781 125.64 42.2581 125.23C41.4581 124.82 40.7781 124.3 40.2481 123.66C39.7181 123.03 39.3081 122.32 39.0481 121.55C38.7781 120.79 38.6481 120.03 38.6481 119.3V87.53H44.5081V118.49C44.5081 119.09 44.6881 119.58 45.0681 120C45.4281 120.4 45.8981 120.59 46.5381 120.59H55.1281V125.84V125.85Z" fill="white"></path><path d="M76.5181 125.85H65.8681C64.7781 125.85 63.8081 125.64 62.9981 125.23C62.1981 124.82 61.5181 124.3 60.9881 123.66C60.4581 123.03 60.0481 122.32 59.7881 121.55C59.5281 120.79 59.3881 120.04 59.3881 119.3V94.08C59.3881 93.35 59.5181 92.59 59.7881 91.83C60.0481 91.06 60.4581 90.35 60.9881 89.72C61.5281 89.08 62.2081 88.55 63.0081 88.15C63.8181 87.74 64.7881 87.53 65.8781 87.53H76.5281V92.74H67.2881C66.6581 92.74 66.1881 92.93 65.8281 93.34C65.4481 93.78 65.2581 94.3 65.2581 94.94V103.86H74.3281V109.52H65.2581V118.49C65.2581 119.1 65.4481 119.6 65.8281 120.04C66.1881 120.45 66.6581 120.65 67.2881 120.65H76.5281V125.86L76.5181 125.85Z" fill="white"></path><path d="M112.298 125.85H106.438V94.8301C106.438 94.6101 106.398 94.3501 106.318 94.0701C106.258 93.8601 106.128 93.6601 105.918 93.4601C105.678 93.2301 105.328 93.0301 104.868 92.8501C104.398 92.6701 103.718 92.5801 102.858 92.5801C101.998 92.5801 101.388 92.6701 100.928 92.8501C100.508 93.0201 100.188 93.2201 99.9981 93.4501C99.7981 93.6901 99.6681 93.9201 99.6181 94.1401C99.5481 94.4301 99.5181 94.7001 99.5181 94.9301V125.84H93.6081V94.8201C93.6081 94.5901 93.5681 94.3401 93.4881 94.0601C93.4281 93.8501 93.2981 93.6501 93.0881 93.4501C92.8481 93.2301 92.4981 93.0201 92.0381 92.8401C91.5681 92.6601 90.8881 92.5701 90.0281 92.5701C89.2381 92.5701 88.6081 92.6601 88.1481 92.8401C87.7181 93.0101 87.3981 93.2201 87.1781 93.4601C86.9681 93.6901 86.8481 93.9201 86.7981 94.1301C86.7281 94.4201 86.6981 94.6901 86.6981 94.9201V125.83H80.7881V94.0601C80.7881 93.6301 80.8581 93.0601 80.9981 92.3101C81.1581 91.4801 81.5881 90.6601 82.2681 89.8701C82.9281 89.1001 83.8981 88.4401 85.1481 87.9101C86.3981 87.3701 88.0381 87.1101 90.1781 87.1101C91.8881 87.1101 93.2481 87.2801 94.3381 87.6301C95.1881 87.9001 95.9281 88.2301 96.5481 88.6201C97.1881 88.2401 97.9481 87.9101 98.7981 87.6301C99.8881 87.2801 101.248 87.1101 102.958 87.1101C105.098 87.1101 106.738 87.3701 107.998 87.9101C109.248 88.4501 110.208 89.1101 110.858 89.8801C111.518 90.6601 111.938 91.4801 112.088 92.3101C112.238 93.0601 112.298 93.6401 112.298 94.0601V125.83V125.85Z" fill="white"></path><path d="M133.688 125.85H123.038C121.938 125.85 120.978 125.64 120.168 125.23C119.368 124.82 118.688 124.3 118.148 123.66C117.618 123.03 117.218 122.32 116.948 121.55C116.688 120.79 116.548 120.03 116.548 119.3V94.08C116.548 93.35 116.678 92.6 116.948 91.84C117.218 91.07 117.618 90.36 118.148 89.73C118.688 89.09 119.358 88.56 120.168 88.16C120.978 87.75 121.948 87.54 123.038 87.54H133.688V92.75H124.448C123.818 92.75 123.348 92.94 122.988 93.35C122.608 93.79 122.418 94.31 122.418 94.95V103.87H131.488V109.53H122.418V118.5C122.418 119.11 122.608 119.61 122.988 120.05C123.348 120.46 123.818 120.66 124.448 120.66H133.688V125.87V125.85Z" fill="white"></path><path d="M156.638 125.85H150.728V94.8399C150.728 94.6099 150.688 94.3599 150.608 94.0899C150.548 93.8699 150.418 93.6699 150.218 93.4599C149.998 93.2399 149.658 93.0399 149.188 92.8699C148.698 92.6899 148.018 92.5899 147.148 92.5899C146.358 92.5899 145.718 92.6799 145.268 92.8599C144.838 93.0299 144.518 93.2399 144.298 93.4799C144.098 93.7099 143.968 93.9399 143.918 94.1499C143.848 94.4399 143.808 94.7099 143.808 94.9399V125.85H137.948V94.0799C137.948 93.6499 138.018 93.0799 138.168 92.3299C138.328 91.4999 138.748 90.6899 139.398 89.8999C140.048 89.1299 141.008 88.4699 142.258 87.9299C143.508 87.3899 145.158 87.1299 147.298 87.1299C149.438 87.1299 151.078 87.3899 152.328 87.9299C153.578 88.4699 154.538 89.1299 155.188 89.8999C155.848 90.6799 156.268 91.4999 156.418 92.3299C156.568 93.0799 156.638 93.6599 156.638 94.0799V125.85Z" fill="white"></path><path d="M172.168 125.85H171.338H167.128H166.308V125.01V92.78H160.718H159.888V91.95V88.36V87.53H160.718H164.278H177.758H178.578V88.36V91.95V92.78H177.758H172.168V125.01V125.85Z" fill="white"></path><path d="M187.298 125.85H186.468H182.268H181.438V125.01V88.36V87.53H182.268H186.468H187.298V88.36V125.01V125.85Z" fill="white"></path><path d="M196.668 79.34C175.748 58.61 140.478 46.23 102.338 46.23C64.198 46.23 28.938 58.61 8.00804 79.34C6.96804 80.37 6.95803 82.05 7.97803 83.1C8.99803 84.15 10.668 84.16 11.698 83.13C31.668 63.35 65.548 51.54 102.338 51.54C139.128 51.54 173.018 63.35 192.978 83.13C194.018 84.16 195.678 84.14 196.698 83.1C197.718 82.05 197.698 80.37 196.658 79.34" fill="white"></path><path d="M7.99799 134.01C28.928 154.75 64.188 167.12 102.328 167.12C140.468 167.12 175.728 154.74 196.658 134C197.698 132.97 197.718 131.29 196.698 130.24C195.678 129.19 194.008 129.18 192.978 130.2C173.018 149.98 139.128 161.79 102.338 161.79C65.548 161.79 31.658 149.98 11.698 130.2C10.658 129.17 8.99798 129.19 7.97798 130.23C6.95798 131.28 6.97799 132.96 8.00799 133.99" fill="white"></path><path d="M156.628 17.97C156.628 17.97 159.268 16.66 159.928 14.32C160.858 11.03 158.968 7.6 155.708 6.67C152.448 5.73 149.048 7.64 148.128 10.93C147.468 13.27 149.028 15.78 149.028 15.78C149.508 16.56 149.408 17.76 148.798 18.44L127.778 42.1C139.608 43.77 150.708 46.58 160.738 50.32L155.448 20.35C155.288 19.45 155.828 18.38 156.638 17.97" fill="white"></path><path d="M201.238 25.17C198.188 23.67 194.508 24.94 193.018 28.01C191.958 30.19 193.048 32.95 193.048 32.95C193.388 33.8 193.078 34.96 192.358 35.52L169.118 53.78C181.028 59.19 191.048 66 198.488 73.81L198.558 38.58C198.558 37.66 199.278 36.71 200.148 36.45C200.148 36.45 202.978 35.63 204.038 33.45C205.528 30.38 204.278 26.67 201.228 25.16" fill="white"></path><path d="M55.678 15.78C55.678 15.78 57.238 13.26 56.578 10.93C55.648 7.64 52.258 5.73 48.988 6.67C45.728 7.6 43.838 11.03 44.758 14.32C45.418 16.66 48.058 17.97 48.058 17.97C48.868 18.38 49.408 19.45 49.248 20.35L43.978 50.23C53.998 46.51 65.078 43.73 76.888 42.08L55.898 18.45C55.288 17.77 55.188 16.57 55.668 15.79" fill="white"></path><path d="M106.298 10.61C106.298 10.61 108.478 8.62 108.478 6.19C108.478 2.77 105.728 0 102.338 0C98.9481 0 96.1981 2.77 96.1981 6.19C96.1981 8.62 98.3781 10.61 98.3781 10.61C99.0481 11.23 99.2781 12.4 98.8781 13.23L85.4181 41.09C90.8881 40.59 96.4981 40.33 102.208 40.33C107.918 40.33 113.698 40.6 119.258 41.11L105.788 13.23C105.388 12.4 105.618 11.23 106.288 10.61" fill="white"></path><path d="M11.628 32.95C11.628 32.95 12.718 30.19 11.658 28.01C10.168 24.94 6.48804 23.67 3.43805 25.17C0.388045 26.68 -0.861953 30.39 0.628047 33.46C1.68805 35.64 4.51805 36.46 4.51805 36.46C5.38805 36.71 6.10805 37.67 6.10805 38.59L6.17805 73.56C13.6281 65.82 23.618 59.07 35.458 53.71L12.3081 35.52C11.5881 34.96 11.2781 33.8 11.6181 32.95" fill="white"></path></svg>