<svg fill="none" height="28" viewBox="0 0 151 28" width="151" xmlns="http://www.w3.org/2000/svg">
	<g clip-path="url(#clip0_1_1134)">
		<mask height="28" id="mask0_1_1134" maskUnits="userSpaceOnUse" style="mask-type:luminance" width="151" x="0" y="0">
			<path d="M151 0H0V27.5127H151V0Z" fill="white"/>
		</mask>
		<g mask="url(#mask0_1_1134)">
			<path d="M149.962 7.76194C150.209 7.76194 150.421 7.84774 150.598 8.02254C150.772 8.19421 150.858 8.40394 150.858 8.64868C150.858 8.89348 150.772 9.10641 150.598 9.27802C150.424 9.45288 150.209 9.53868 149.962 9.53868C149.714 9.53868 149.499 9.45288 149.326 9.27802C149.152 9.10321 149.065 8.89348 149.065 8.64868C149.065 8.40394 149.152 8.19734 149.329 8.02254C149.505 7.84774 149.717 7.76194 149.965 7.76194M151.003 8.64554C151.003 8.36267 150.903 8.12107 150.697 7.92087C150.492 7.7206 150.248 7.62207 149.962 7.62207C149.676 7.62207 149.431 7.7238 149.229 7.92087C149.027 8.12107 148.924 8.36267 148.924 8.64554C148.924 8.92841 149.024 9.17315 149.226 9.37341C149.428 9.57362 149.672 9.67535 149.962 9.67535C150.251 9.67535 150.495 9.57362 150.697 9.37341C150.9 9.17315 151.003 8.92841 151.003 8.64554ZM150.238 8.42301C150.238 8.50888 150.2 8.56928 150.119 8.59788C150.074 8.61374 150.01 8.62328 149.923 8.62328H149.737V8.21641H149.914C150.026 8.21641 150.109 8.22914 150.161 8.25774C150.212 8.28634 150.238 8.34041 150.238 8.42301ZM149.541 8.07661V9.20495H149.737V8.76314H149.901C150.01 8.76314 150.087 8.77588 150.129 8.79808C150.203 8.83941 150.238 8.92521 150.238 9.05555V9.17948C150.238 9.17948 150.244 9.18908 150.244 9.19221C150.244 9.19541 150.244 9.19861 150.244 9.20175H150.431L150.424 9.18908C150.424 9.18908 150.418 9.16041 150.415 9.13181C150.415 9.10321 150.415 9.07461 150.415 9.04921V8.96655C150.415 8.90935 150.395 8.85214 150.354 8.79174C150.312 8.73134 150.248 8.69641 150.157 8.68048C150.228 8.67094 150.283 8.65188 150.322 8.62648C150.395 8.57881 150.434 8.50568 150.434 8.40394C150.434 8.26094 150.373 8.16561 150.257 8.11794C150.19 8.08927 150.087 8.07661 149.946 8.07661H149.544H149.541Z" fill="white"/>
			<path d="M37.0874 7.62524C33.7003 7.62524 32.1289 9.13179 32.1289 11.9765V15.9306C32.1289 18.7753 33.7035 20.2787 37.0874 20.2787H51.9981V17.809H37.8811C35.8984 17.809 35.5352 17.1733 35.5352 15.4061V12.4978C35.5352 10.7306 35.8984 10.0949 37.8811 10.0949H51.9981V7.62524H37.0874Z" fill="white"/>
			<path d="M57.9044 15.4061V7.62524H54.498V15.9306C54.498 18.7753 56.0727 20.2787 59.4565 20.2787H74.3675V17.809H60.2503C58.2675 17.809 57.9044 17.1733 57.9044 15.4061Z" fill="white"/>
			<path d="M80.3027 7.62524H76.8643V20.2787H80.3027V7.62524Z" fill="white"/>
			<path d="M92.672 17.7582L86.7715 7.6062H82.7969L90.7468 20.2978H94.722L102.669 7.6062H98.6973L92.672 17.7582Z" fill="white"/>
			<path d="M107.531 12.4975C107.531 10.7526 107.888 10.1105 109.809 10.0946H119.919C120.45 10.0946 121.583 10.1042 121.583 10.1042C121.583 10.1042 121.583 10.6445 121.583 11.064C121.583 12.3927 120.822 12.577 118.807 12.577H107.534V12.4944L107.531 12.4975ZM120.931 7.62183H118.65H109.083C105.802 7.62183 104.227 9.03937 104.131 11.7157L104.121 11.722V15.9271C104.121 18.7718 105.696 20.2752 109.08 20.2752H123.994V17.8056H109.877C107.894 17.8056 107.531 17.1699 107.531 15.4027V14.9958H121.285C122.766 14.9958 124.611 14.7066 124.611 12.2051L124.624 11.0482C124.624 9.13157 124.203 7.62183 121.198 7.62183" fill="white"/>
			<path d="M127.12 7.62524V10.0949H135.07V20.2787H138.46V10.0949H146.427V7.62524H127.12Z" fill="white"/>
			<path d="M13.9077 27.5126C19.1907 27.5126 23.786 24.598 26.1416 20.3071H1.67383C4.02934 24.598 8.62149 27.5126 13.9077 27.5126Z" fill="white"/>
			<path d="M13.9085 0C8.49692 0 3.81162 3.05449 1.51074 7.51705H26.3062C24.0054 3.05449 19.3168 0 13.9085 0Z" fill="white"/>
			<path d="M0.0385622 12.7297C0.0128541 13.0698 0 13.4099 0 13.7564C0 14.2141 0.0224947 14.6686 0.0674836 15.1168H11.8129C11.3694 14.3635 10.8938 13.5498 10.4118 12.7329H0.0385622V12.7297Z" fill="white"/>
			<path d="M27.7487 15.1168C27.7937 14.6686 27.8162 14.2173 27.8162 13.7564C27.8162 13.4099 27.8034 13.0698 27.7777 12.7297H17.4077L16.0098 15.1136H27.7455L27.7487 15.1168Z" fill="white"/>
			<path d="M13.1722 17.4308C13.0083 17.1511 12.8219 16.8365 12.6227 16.4932H0.276367C0.44347 17.3164 0.687694 18.1142 0.996195 18.877H26.82C27.1285 18.1142 27.3728 17.3164 27.5398 16.4932H15.2064L14.6569 17.4308C14.3259 17.9934 13.5032 17.9966 13.1722 17.4308Z" fill="white"/>
			<path d="M7.13702 8.96944H0.864257C0.578255 9.73545 0.356522 10.5333 0.211914 11.3533H9.60824C9.30937 10.8448 9.02017 10.3489 8.74383 9.88171C8.40958 9.31591 7.79905 8.96631 7.13702 8.96631V8.96944Z" fill="white"/>
			<path d="M26.9475 8.96948H20.6812C20.0192 8.96948 19.4054 9.31909 19.0712 9.88802L18.21 11.3565H27.5999C27.4521 10.5332 27.2336 9.73549 26.9475 8.97262V8.96948Z" fill="white"/>
		</g>
	</g>
	<defs>
		<clipPath id="clip0_1_1134">
			<rect fill="white" height="27.5127" width="151"/>
		</clipPath>
	</defs>
</svg>